<svg xmlns="http://www.w3.org/2000/svg" width="512" height="512" viewBox="0 0 512 512" fill="none">
  <title>KK monogram</title>
  <desc>Simple black geometric KK monogram with a white rounded-square background.</desc>
  <rect x="0" y="0" width="512" height="512" rx="72" ry="72" fill="#FFFFFF"/>
  <g fill="#000000">
    <path d="M 48.00 106.21 L 48.00 404.37 L 133.19 404.37 L 134.61 290.78 L 182.88 343.32 L 204.18 377.39 L 215.54 404.37 L 310.66 404.37 L 296.46 370.29 L 270.91 331.96 L 197.08 255.29 L 270.91 180.04 L 296.46 141.71 L 310.66 106.21 L 216.96 106.21 L 185.72 164.42 L 136.03 219.80 L 133.19 218.38 L 133.19 106.21 Z"/>
    <path d="M 367.45 106.21 L 334.80 167.26 L 297.88 209.86 L 253.87 255.29 L 253.87 259.55 L 300.72 303.56 L 327.70 334.80 L 351.84 370.29 L 367.45 404.37 L 462.58 404.37 L 446.96 368.87 L 419.99 329.12 L 383.07 287.95 L 349.00 256.71 L 400.11 205.60 L 424.25 177.20 L 446.96 143.13 L 458.32 120.41 L 462.58 106.21 Z"/>
  </g>
</svg>
